<?xml version="1.0" encoding="UTF-8"?>
<svg width="333.68mm" height="57.135mm" version="1.1" viewBox="0 0 333.68 57.135" xmlns="http://www.w3.org/2000/svg">
 <defs>
  <clipPath id="clipPath98-3-7-9">
   <path d="m2341.9 828.66h1237.9v1233.9h-1237.9z" clip-rule="evenodd"/>
  </clipPath>
  <clipPath id="clipPath106-1-3-7">
   <path d="m0 0h1239v1235h-1239z"/>
  </clipPath>
  <clipPath id="clipPath122-0-62-4">
   <path d="m2420 893.63h1081.6v1078.2h-1081.6z" clip-rule="evenodd"/>
  </clipPath>
  <clipPath id="clipPath130-3-1-0">
   <path d="m0 0h1082v1079h-1082z"/>
  </clipPath>
 </defs>
 <g transform="translate(4.1542 -184.88)">
  <g transform="matrix(.046157 0 0 .046304 -112.25 146.51)" stroke-width="1.8314">
   <g clip-path="url(#clipPath98-3-7-9)" stroke-width="1.8314">
    <g transform="translate(2341,828)" stroke-width="1.8314">
     <g stroke-width="1.8314">
      <g clip-path="url(#clipPath106-1-3-7)" stroke-width="1.8314">
       <g transform="matrix(4.82 0 0 4.82 .91626 .65955)" stroke-width="1.8314">
        <path d="m0 0h257v256h-257z" fill="#ffde59"/>
       </g>
      </g>
     </g>
    </g>
   </g>
  </g>
  <g transform="matrix(.047264 0 0 .04797 -115.51 144.72)" clip-path="url(#clipPath122-0-62-4)" stroke-width="1.7781">
   <g transform="translate(2420,893)" stroke-width="1.7781">
    <g stroke-width="1.7781">
     <g clip-path="url(#clipPath130-3-1-0)" stroke-width="1.7781">
      <g transform="matrix(4.2116 0 0 4.2116 .035645 .63068)" stroke-width="1.7781">
       <path d="m0 0h257v256h-257z" fill="#5170ff"/>
      </g>
     </g>
    </g>
   </g>
  </g>
  <g fill-rule="evenodd" stroke-linecap="round" stroke-linejoin="round">
   <circle cx="24.437" cy="213.45" r="22.554" fill="#ffde59"/>
   <path d="m34.208 196.52-8.9031 15.42h18.59a19.546 19.546 0 0 0-9.6872-15.42zm-19.529 0.0238a19.546 19.546 0 0 0-9.6986 15.397h18.588zm-9.698 18.404a19.546 19.546 0 0 0 19.455 18.043 19.546 19.546 0 0 0 19.455-18.043z" fill="#5170ff"/>
   <circle cx="24.437" cy="213.45" r="6.0143" fill="#ffde59"/>
   <circle cx="24.437" cy="213.45" r="3.0071" fill="#141b41"/>
  </g>
  <g fill="#ffde59" stroke-width=".21414" aria-label="OSWOIĆ ATOM">
   <path d="m79.2 223.22q-6.4861 0-9.5463-2.67-2.7066-2.3652-2.7066-6.4495 0-4.0721 2.7066-6.4373 3.0602-2.67 9.5463-2.67 6.4861 0 9.5463 2.67 2.7066 2.3652 2.7066 6.4373 0 4.0843-2.7066 6.4495-3.0602 2.67-9.5463 2.67zm0-4.6939q2.6578 0 3.9014-1.524 0.99974-1.2314 0.99974-2.9017t-0.99974-2.8895q-1.2436-1.5362-3.9014-1.5362t-3.9136 1.5362q-0.99974 1.2192-0.99974 2.8895t0.99974 2.9017q1.2558 1.524 3.9136 1.524z"/>
   <path d="m103.99 223.22q-3.5478 0-5.718-0.75589-2.1702-0.76809-3.304-2.097-1.1338-1.3411-1.524-3.0846h7.7906q0.86563 1.2436 2.7554 1.2436 1.8898 0 2.7554-1.2436 0.0731-0.12192 0.0731-0.21945 0-0.32918-0.87782-0.48768-0.86562-0.17069-2.5969-0.25603-2.1824-0.0975-4.5842-0.46329-5.3522-0.82905-5.3522-4.3037 0-0.29261 0.03658-0.62179 0.39014-1.7434 1.524-3.0724 1.1338-1.3411 3.304-2.097 2.1702-0.76809 5.718-0.76809t5.718 0.76809q2.1702 0.7559 3.304 2.097 1.1338 1.3289 1.524 3.0724h-7.7906q-0.86562-1.2436-2.7554-1.2436-1.8897 0-2.7554 1.2436-0.061 0.0975-0.061 0.18288 0 0.29261 0.82905 0.43891 0.84124 0.13411 2.4628 0.23165 1.6337 0.0975 3.4747 0.31699 1.841 0.21945 3.4381 0.76809 1.6093 0.53644 2.5115 1.5971 0.70713 0.81686 0.70713 2.0726 0 0.35356-0.061 0.7437-0.39014 1.7434-1.524 3.0846-1.1338 1.3289-3.304 2.097-2.1702 0.75589-5.718 0.75589z"/>
   <path d="m143.57 222.84h-6.1203l-4.3159-11.363-4.3159 11.363h-6.1203l-8.4124-17.483h7.4371l4.3891 11.107 4.7061-11.107h4.6329l4.7061 11.107 4.3891-11.107h7.4371z"/>
   <path d="m163.57 223.22q-6.4861 0-9.5462-2.67-2.7066-2.3652-2.7066-6.4495 0-4.0721 2.7066-6.4373 3.0602-2.67 9.5462-2.67t9.5463 2.67q2.7066 2.3652 2.7066 6.4373 0 4.0843-2.7066 6.4495-3.0602 2.67-9.5463 2.67zm0-4.6939q2.6578 0 3.9014-1.524 0.99973-1.2314 0.99973-2.9017t-0.99973-2.8895q-1.2436-1.5362-3.9014-1.5362t-3.9136 1.5362q-0.99973 1.2192-0.99973 2.8895t0.99973 2.9017q1.2558 1.524 3.9136 1.524z"/>
   <path d="m186.09 222.84h-7.3395v-17.495h7.3395z"/>
   <path d="m201.27 223.22q-6.4861 0-9.5463-2.67-2.7066-2.3652-2.7066-6.4495 0-4.0721 2.7066-6.4373 3.0602-2.67 9.5463-2.67 3.8039 0 6.291 0.87782 2.4872 0.86562 3.8648 2.3774 1.3777 1.5118 1.8288 3.4747h-7.7175q-1.1582-2.0482-4.2672-2.0482-2.6578 0-3.9136 1.5362-0.99974 1.2192-0.99974 2.8895t0.99974 2.9017q1.2558 1.524 3.9136 1.524 3.1089 0 4.2672-2.036h7.7175q-0.4511 1.9507-1.8288 3.4625-1.3777 1.5118-3.8648 2.3896-2.4871 0.87781-6.291 0.87781zm1.4021-19.434h-3.0724l1.5849-4.3403h5.1206z"/>
   <path d="m249.8 222.84h-7.437l-1.6459-2.8651h-11.034l-1.6459 2.8651h-7.437l11.192-17.483h6.8153zm-11.558-7.1932-3.0358-5.3035-3.048 5.3035z"/>
   <path d="m261.25 222.84h-7.3395v-13.167h-6.8518v-4.3281h21.043v4.3281h-6.8518z"/>
   <path d="m281.09 223.22q-6.4861 0-9.5462-2.67-2.7066-2.3652-2.7066-6.4495 0-4.0721 2.7066-6.4373 3.0602-2.67 9.5462-2.67 6.4861 0 9.5463 2.67 2.7066 2.3652 2.7066 6.4373 0 4.0843-2.7066 6.4495-3.0602 2.67-9.5463 2.67zm0-4.6939q2.6578 0 3.9014-1.524 0.99974-1.2314 0.99974-2.9017t-0.99974-2.8895q-1.2436-1.5362-3.9014-1.5362-2.6578 0-3.9136 1.5362-0.99974 1.2192-0.99974 2.8895t0.99974 2.9017q1.2558 1.524 3.9136 1.524z"/>
   <path d="m329.52 222.84h-7.3395v-11.156l-6.5592 11.156h-5.4742l-6.547-11.156v11.156h-7.3395v-17.495h8.7172l7.9125 12.497 7.9003-12.497h8.7294z"/>
  </g>
 </g>
</svg>
