<?xml version="1.0" encoding="UTF-8"?>
<svg width="110" height="40" data-name="Warstwa 1" version="1.1" viewBox="0 0 142.16 35.62" xmlns="http://www.w3.org/2000/svg">
 <g transform="translate(0 -.02)">
  <path d="m8.27 14.215c0.49 0 0.7 0.17 0.7 0.66v1.69a1 1 0 0 1-0.14 0.52l-4.27 5.81h4.18c0.49 0 0.7 0.16 0.7 0.65v1.71c0 0.49-0.21 0.68-0.7 0.68h-8c-0.49 0-0.7-0.19-0.7-0.68v-1.72a0.88 0.88 0 0 1 0.14-0.49l4.22-5.79h-3.23c-0.49 0-0.7-0.19-0.7-0.68v-1.71c0-0.49 0.21-0.66 0.7-0.66zm16.29 11.08c-0.14 0.47-0.21 0.63-0.7 0.63h-2.88c-0.49 0-0.61-0.21-0.7-0.63l-1-4.47a9.68 9.68 0 0 1-0.21-1.29c0 0.07-0.16 0.77-0.3 1.29l-1.34 4.47c-0.12 0.42-0.21 0.63-0.7 0.63h-2.79c-0.49 0-0.59-0.19-0.7-0.63l-2.81-10.38c-0.14-0.49 0.19-0.7 0.68-0.7h2.29c0.49 0 0.66 0.28 0.77 0.7l1.36 5.2c0.12 0.51 0.16 1.12 0.19 1.19s0.16-0.77 0.28-1.19l1.45-5.2c0.12-0.42 0.28-0.7 0.77-0.7h2.27c0.49 0 0.68 0.28 0.77 0.7l1.12 5.2 0.21 1.19c0-0.12 0.16-0.84 0.26-1.19l1.31-5.2c0.12-0.42 0.28-0.7 0.77-0.7h1.9c0.49 0 0.82 0.21 0.68 0.7zm10.94-7.31c0-0.77-0.66-1-1.62-1s-1.61 0.26-1.61 1v4.15c0 0.8 0.66 1.05 1.61 1.05s1.62-0.26 1.62-1.05zm-7-0.3c0-2.23 1.83-3.65 5.36-3.65s5.36 1.43 5.36 3.65v4.78c0 2.23-1.83 3.65-5.36 3.65s-5.36-1.43-5.36-3.65zm17.02 7.54c0 0.49-0.16 0.7-0.66 0.7h-2.41c-0.49 0-0.68-0.21-0.68-0.7v-15c0-0.49 0.19-0.71 0.68-0.71h2.41c0.49 0 0.66 0.21 0.66 0.71zm5.46-11.01c0.49 0 0.63 0.19 0.68 0.68v0.4a5.46 5.46 0 0 1 3.63-1.27 3.16 3.16 0 0 1 3.44 3.26v7.94c0 0.49-0.19 0.7-0.68 0.7h-2.31c-0.49 0-0.71-0.21-0.71-0.7v-7c0-0.73-0.14-1-0.89-1a4.37 4.37 0 0 0-2.34 0.94v7.05c0 0.49-0.17 0.7-0.66 0.7h-2.4c-0.49 0-0.68-0.21-0.68-0.7v-10.32c0-0.49 0.19-0.68 0.68-0.68zm14.07 11.01c0 0.49-0.16 0.7-0.66 0.7h-2.41c-0.49 0-0.68-0.21-0.68-0.7v-10.31c0-0.49 0.19-0.7 0.68-0.7h2.41c0.49 0 0.66 0.21 0.66 0.7zm0-13c0 0.49-0.16 0.68-0.66 0.68h-2.41c-0.49 0-0.68-0.19-0.68-0.68v-1.94c0-0.49 0.19-0.71 0.68-0.71h2.41c0.49 0 0.66 0.21 0.66 0.71zm6.17 6.3h2.83v-0.68c0-0.7-0.45-1.06-1.43-1.06s-1.41 0.35-1.41 1.06zm6.32 1.76c0 0.45-0.19 0.63-0.63 0.63h-5.69v1.41c0 0.7 0.42 1 1.41 1s1.43-0.33 1.43-1c0-0.49 0.19-0.68 0.68-0.68h2c0.49 0 0.68 0.19 0.68 0.68v0.17c0 2.23-1.26 3.65-4.8 3.65s-5.06-1.43-5.06-3.65v-4.86c0-2.23 1.52-3.65 5.06-3.65s4.92 1.43 4.92 3.65zm5.45-6.07c0.49 0 0.63 0.19 0.68 0.68v0.4a5.46 5.46 0 0 1 3.63-1.27 3.16 3.16 0 0 1 3.45 3.26v7.94c0 0.49-0.19 0.7-0.68 0.7h-2.33c-0.49 0-0.71-0.21-0.71-0.7v-7c0-0.73-0.14-1-0.89-1a4.38 4.38 0 0 0-2.34 0.94v7.05c0 0.49-0.16 0.7-0.66 0.7h-2.4c-0.49 0-0.68-0.21-0.68-0.7v-10.32c0-0.49 0.19-0.68 0.68-0.68zm14.07 11.01c0 0.49-0.17 0.7-0.66 0.7h-2.42c-0.49 0-0.68-0.21-0.68-0.7v-10.31c0-0.49 0.19-0.7 0.68-0.7h2.42c0.49 0 0.66 0.21 0.66 0.7zm0-13c0 0.49-0.17 0.68-0.66 0.68h-2.42c-0.49 0-0.68-0.19-0.68-0.68v-1.94c0-0.49 0.19-0.71 0.68-0.71h2.42c0.49 0 0.66 0.21 0.66 0.71z" fill="#f0008c"/>
  <path d="m101.63 20.165c-0.47 0-0.67-0.16-0.67-0.64v-1c0-0.48 0.2-0.66 0.68-0.66h39.84c0.47 0 0.68 0.19 0.67 0.66v1c0 0.48-0.21 0.64-0.68 0.64zm22.86-19.03c0.38 0 0.55 0.13 0.55 0.51v1.32a0.71 0.71 0 0 1-0.11 0.4l-3.34 4.53h3.26c0.39 0 0.55 0.13 0.55 0.51v1.34c0 0.38-0.17 0.53-0.55 0.53h-6.28c-0.38 0-0.55-0.15-0.55-0.53v-1.33a0.72 0.72 0 0 1 0.11-0.39l3.31-4.51h-2.53c-0.38 0-0.55-0.15-0.54-0.53v-1.35c0-0.39 0.16-0.51 0.55-0.51z" fill="#fff"/>
  <path d="m106.74 27.455c0.38 0 0.55 0.13 0.55 0.51v1.25c0 0.39-0.17 0.53-0.55 0.53h-1.48v3.65c0 0.61 0.42 0.81 1.17 0.81h0.44c0.38 0 0.55 0.17 0.55 0.55v1.3c0 0.38-0.17 0.53-0.55 0.53h-0.92c-2.77 0-3.63-0.93-3.63-2.86v-4h-0.81c-0.38 0-0.53-0.15-0.53-0.53v-1.12c0-0.39 0.15-0.48 0.53-0.53l0.79-0.11v-1.67c0-0.39 0.15-0.55 0.53-0.55h1.91c0.39 0 0.52 0.16 0.52 0.55v1.67zm4.59 3.34h2.22v-0.53c0-0.55-0.35-0.83-1.12-0.83s-1.1 0.27-1.1 0.83zm5 1.38c0 0.35-0.15 0.5-0.5 0.5h-4.46v1.1c0 0.55 0.33 0.81 1.1 0.81s1.12-0.26 1.12-0.81c0-0.38 0.15-0.53 0.53-0.53h1.58c0.39 0 0.53 0.15 0.53 0.53v0.13c0 1.74-1 2.86-3.76 2.86s-4-1.12-4-2.86v-3.77c0-1.74 1.19-2.86 4-2.86s3.85 1.12 3.85 2.86zm6.76-1.8c0-0.6-0.51-0.81-1.27-0.81s-1.27 0.2-1.27 0.81v3.26c0 0.62 0.51 0.82 1.27 0.82s1.27-0.2 1.27-0.82zm-5.47-0.24c0-1.74 1.43-2.86 4.2-2.86s4.2 1.12 4.2 2.86v3.74c0 1.75-1.43 2.86-4.2 2.86s-4.2-1.12-4.2-2.86zm15.87-2.33v1.43c0 0.38-0.17 0.51-0.55 0.55a4.27 4.27 0 0 0-2.48 1v5.25c0 0.39-0.13 0.55-0.51 0.55h-1.89c-0.39 0-0.53-0.16-0.53-0.55v-8.09c0-0.39 0.14-0.53 0.53-0.53h1.76c0.39 0 0.49 0.15 0.53 0.53l0.05 0.51a3.23 3.23 0 0 1 2.53-1.19c0.38 0 0.55 0.15 0.55 0.53m4.11 8.25c0 0.38-0.13 0.55-0.51 0.55h-1.89c-0.39 0-0.53-0.17-0.53-0.55v-8.07c0-0.38 0.15-0.55 0.53-0.55h1.89c0.38 0 0.51 0.17 0.51 0.55zm0-10.2c0 0.38-0.13 0.53-0.51 0.53h-1.89c-0.39 0-0.53-0.15-0.53-0.53v-1.52c0-0.39 0.15-0.55 0.53-0.55h1.89c0.38 0 0.51 0.16 0.51 0.55zm4.57 10.2c0 0.38-0.13 0.55-0.52 0.55h-1.9c-0.38 0-0.53-0.17-0.53-0.55v-8.07c0-0.38 0.15-0.55 0.53-0.55h1.89c0.39 0 0.52 0.17 0.52 0.55zm0-10.2c0 0.38-0.13 0.53-0.52 0.53h-1.9c-0.38 0-0.53-0.15-0.53-0.53v-1.52c0-0.39 0.15-0.55 0.53-0.55h1.89c0.39 0 0.52 0.16 0.52 0.55z" fill="#fff"/>
 </g>
</svg>
