<?xml version="1.0" encoding="UTF-8"?>
<svg width="372.44mm" height="268.61mm" version="1.1" viewBox="0 0 372.44 268.61" xmlns="http://www.w3.org/2000/svg" xmlns:xlink="http://www.w3.org/1999/xlink">
 <defs>
  <linearGradient id="linearGradient29298" x1="-512.7" x2="-512.7" y1="126.05" y2="-202.67" gradientTransform="translate(95.653 -.013049)" gradientUnits="userSpaceOnUse" xlink:href="#linearGradient29296"/>
  <linearGradient id="linearGradient29296">
   <stop stop-color="#ffde59" offset="0"/>
   <stop stop-color="#ffde59" stop-opacity="0" offset="1"/>
  </linearGradient>
  <linearGradient id="linearGradient36585" x1="-1120.1" x2="-1120.1" y1="-242.19" y2="-202.97" gradientTransform="matrix(-1 0 0 1 -2234.3 0)" gradientUnits="userSpaceOnUse">
   <stop stop-color="#ff99cf" stop-opacity="0" offset="0"/>
   <stop stop-color="#ff99cf" offset="1"/>
  </linearGradient>
  <linearGradient id="linearGradient36585-4" x1="-1120.1" x2="-1120.1" y1="-242.19" y2="-202.97" gradientTransform="matrix(-1 0 0 1 -2234.3 0)" gradientUnits="userSpaceOnUse">
   <stop stop-color="#ffde59" stop-opacity=".0064236" offset="0"/>
   <stop stop-color="#ffde59" offset="1"/>
  </linearGradient>
  <clipPath id="clipPath14958">
   <path d="m-828.58-399.03h12.964l4.5-123.61h-21.964z" fill="#ccc" stroke-linecap="round" stroke-linejoin="round" stroke-opacity=".76078" stroke-width="11.25"/>
  </clipPath>
  <clipPath id="clipPath14958-0">
   <path d="m-828.58-399.03h12.964l4.5-123.61h-21.964z" fill="#ccc" stroke-linecap="round" stroke-linejoin="round" stroke-opacity=".76078" stroke-width="11.25"/>
  </clipPath>
  <radialGradient id="radialGradient31016" cx="-1160.8" cy="121.43" r="244.86" gradientTransform="matrix(.56364 0 0 .56364 -271.72 -84.324)" gradientUnits="userSpaceOnUse" xlink:href="#linearGradient29296"/>
 </defs>
 <g transform="translate(40.478 59.596)">
  <path d="m36.077 86.641v41.698h103.52v-112.37" fill="none" stroke="#232d5c" stroke-linejoin="round" stroke-width="3.9688"/>
  <path d="m156.58 15.973v112.37h103.52v-41.698" fill="none" stroke="#232d5c" stroke-linejoin="round" stroke-width="3.9688"/>
  <g transform="matrix(.35278 0 0 -.35278 485.82 -37.549)">
   <g transform="rotate(-19.523 -625.72 -357.75)">
    <g fill="#0d1330" fill-rule="evenodd" stroke-width=".26981">
     <rect transform="scale(1,-1)" x="-615.78" y="258.01" width="69.519" height="33.382" rx="7.3026" ry="7.3026"/>
     <rect transform="scale(1,-1)" x="-615.78" y="258.01" width="69.519" height="33.382" rx="7.3026" ry="7.3026"/>
     <rect transform="scale(1,-1)" x="-691.3" y="258.01" width="69.519" height="33.382" rx="7.3026" ry="7.3026"/>
    </g>
    <rect transform="scale(1,-1)" x="-773.35" y="250.96" width="310.03" height="167.72" rx="6.7517" ry="7.1067" fill="#435bd1" stroke="#fff" stroke-linecap="round" stroke-linejoin="round" stroke-width="5.6253"/>
    <g fill="#0d1330" fill-rule="evenodd" stroke-width=".26981">
     <rect transform="scale(1,-1)" x="-766.82" y="258.01" width="69.519" height="33.382" rx="7.3026" ry="7.3026"/>
     <rect transform="scale(1,-1)" x="-691.3" y="258.01" width="69.519" height="33.382" rx="7.3026" ry="7.3026"/>
     <rect transform="scale(1,-1)" x="-615.78" y="258.01" width="69.519" height="33.382" rx="7.3026" ry="7.3026"/>
     <rect transform="scale(1,-1)" x="-540.26" y="258.01" width="69.519" height="33.382" rx="7.3026" ry="7.3026"/>
     <rect transform="scale(1,-1)" x="-615.78" y="297.39" width="69.519" height="33.382" rx="7.3026" ry="7.3026"/>
     <rect transform="scale(1,-1)" x="-615.78" y="297.39" width="69.519" height="33.382" rx="7.3026" ry="7.3026"/>
     <rect transform="scale(1,-1)" x="-691.3" y="297.39" width="69.519" height="33.382" rx="7.3026" ry="7.3026"/>
     <rect transform="scale(1,-1)" x="-766.82" y="297.39" width="69.519" height="33.382" rx="7.3026" ry="7.3026"/>
     <rect transform="scale(1,-1)" x="-691.3" y="297.39" width="69.519" height="33.382" rx="7.3026" ry="7.3026"/>
     <rect transform="scale(1,-1)" x="-615.78" y="297.39" width="69.519" height="33.382" rx="7.3026" ry="7.3026"/>
     <rect transform="scale(1,-1)" x="-540.26" y="297.39" width="69.519" height="33.382" rx="7.3026" ry="7.3026"/>
     <rect transform="scale(1,-1)" x="-615.78" y="297.39" width="69.519" height="33.382" rx="7.3026" ry="7.3026"/>
     <rect transform="scale(1,-1)" x="-615.78" y="297.39" width="69.519" height="33.382" rx="7.3026" ry="7.3026"/>
     <rect transform="scale(1,-1)" x="-691.3" y="297.39" width="69.519" height="33.382" rx="7.3026" ry="7.3026"/>
     <rect transform="scale(1,-1)" x="-615.78" y="336.77" width="69.519" height="33.382" rx="7.3026" ry="7.3026"/>
     <rect transform="scale(1,-1)" x="-615.78" y="336.77" width="69.519" height="33.382" rx="7.3026" ry="7.3026"/>
     <rect transform="scale(1,-1)" x="-691.3" y="336.77" width="69.519" height="33.382" rx="7.3026" ry="7.3026"/>
     <rect transform="scale(1,-1)" x="-766.82" y="336.77" width="69.519" height="33.382" rx="7.3026" ry="7.3026"/>
     <rect transform="scale(1,-1)" x="-691.3" y="336.77" width="69.519" height="33.382" rx="7.3026" ry="7.3026"/>
     <rect transform="scale(1,-1)" x="-615.78" y="336.77" width="69.519" height="33.382" rx="7.3026" ry="7.3026"/>
     <rect transform="scale(1,-1)" x="-540.26" y="336.77" width="69.519" height="33.382" rx="7.3026" ry="7.3026"/>
     <rect transform="scale(1,-1)" x="-615.78" y="336.77" width="69.519" height="33.382" rx="7.3026" ry="7.3026"/>
     <rect transform="scale(1,-1)" x="-615.78" y="336.77" width="69.519" height="33.382" rx="7.3026" ry="7.3026"/>
     <rect transform="scale(1,-1)" x="-691.3" y="336.77" width="69.519" height="33.382" rx="7.3026" ry="7.3026"/>
     <rect transform="scale(1,-1)" x="-615.78" y="376.16" width="69.519" height="33.382" rx="7.3026" ry="7.3026"/>
     <rect transform="scale(1,-1)" x="-615.78" y="376.16" width="69.519" height="33.382" rx="7.3026" ry="7.3026"/>
     <rect transform="scale(1,-1)" x="-691.3" y="376.16" width="69.519" height="33.382" rx="7.3026" ry="7.3026"/>
     <rect transform="scale(1,-1)" x="-766.82" y="376.16" width="69.519" height="33.382" rx="7.3026" ry="7.3026"/>
     <rect transform="scale(1,-1)" x="-691.3" y="376.16" width="69.519" height="33.382" rx="7.3026" ry="7.3026"/>
     <rect transform="scale(1,-1)" x="-615.78" y="376.16" width="69.519" height="33.382" rx="7.3026" ry="7.3026"/>
     <rect transform="scale(1,-1)" x="-540.26" y="376.16" width="69.519" height="33.382" rx="7.3026" ry="7.3026"/>
    </g>
   </g>
   <path transform="matrix(1.2423 -.28424 .22304 .97481 -53.455 -286.06)" d="m-417.05 126.04-136.97-328.72h136.97m0 328.72 136.97-328.72h-136.97" fill="url(#linearGradient29298)"/>
  </g>
  <g transform="matrix(.35278 0 0 -.35278 461.04 -40.376)">
   <g transform="matrix(-.90684 -.42147 -.42147 .90684 -2133.5 -283.66)" fill-rule="evenodd">
    <path transform="matrix(.74487 0 0 -.74487 -1510.5 -273.52)" d="m849.14-111.47c54.291-5.2969 88.089-5.2771 121.91-5.262v466.63l-195.22 1.0979c26.064-109.42 108-251.33 73.314-462.47zm243.81 0c-54.291-5.2969-88.089-5.2771-121.91-5.262v466.63l195.22 1.0979c-26.064-109.42-108-251.33-73.314-462.47z" fill="#5170ff" stroke-width="1.0069"/>
    <path transform="matrix(.75 0 0 -.75 461.64 661.51)" d="m-1572.1 1133.6c13.773 108.39-60.577 427.43-224.55 460.59l325.32 1.0899c-25.885-108.67-107.26-249.61-72.812-459.3-10.046-0.9801-19.19-1.7253-27.955-2.3731z" fill="#435bd1"/>
   </g>
   <circle transform="scale(1,-1)" cx="-1118.4" cy="240.58" r="65.641" fill="#0d1330" stroke="#fff" stroke-linecap="round" stroke-linejoin="round" stroke-width="5.625"/>
   <g transform="rotate(5.4527 -1150.4 -303.17)">
    <circle transform="scale(1,-1)" cx="-1119.8" cy="202.64" r="5.7346" fill="#ff99cf"/>
    <path transform="matrix(.86325 0 0 .8556 -157.98 -28.978)" d="m-1114.2-202.97v-39.214l-5.8719 39.214m5.8719 0v-39.214l5.8719 39.214" fill="url(#linearGradient36585)"/>
   </g>
   <g transform="rotate(-81.222 -1120.8 -239.85)">
    <circle transform="scale(1,-1)" cx="-1119.8" cy="202.64" r="5.7346" fill="#ff99cf"/>
    <path transform="matrix(.86325 0 0 .8556 -157.98 -28.978)" d="m-1114.2-202.97v-39.214l-5.8719 39.214m5.8719 0v-39.214l5.8719 39.214" fill="url(#linearGradient36585)"/>
   </g>
   <g transform="rotate(-41.655 -1108.1 -236.26)">
    <circle transform="scale(1,-1)" cx="-1119.8" cy="202.64" r="5.7346" fill="#ff99cf"/>
    <path transform="matrix(.86325 0 0 .8556 -157.98 -28.978)" d="m-1114.2-202.97v-39.214l-5.8719 39.214m5.8719 0v-39.214l5.8719 39.214" fill="url(#linearGradient36585)"/>
   </g>
   <g transform="rotate(16.093 -1126.7 -254.17)">
    <circle transform="scale(1,-1)" cx="-1147.5" cy="233.66" r="13.381" fill="#ffde59"/>
    <path transform="matrix(2.0673 0 0 1.0627 1155.9 -17.953)" d="m-1114.2-202.97v-39.214l-5.8719 39.214m5.8719 0v-39.214l5.8719 39.214" fill="url(#linearGradient36585-4)"/>
   </g>
   <g transform="rotate(-73.018 -1146.3 -286.66)">
    <circle transform="scale(1,-1)" cx="-1147.5" cy="233.66" r="13.381" fill="#ffde59"/>
    <path transform="matrix(2.0673 0 0 1.0627 1155.9 -17.953)" d="m-1114.2-202.97v-39.214l-5.8719 39.214m5.8719 0v-39.214l5.8719 39.214" fill="url(#linearGradient36585-4)"/>
   </g>
   <circle transform="scale(1,-1)" cx="-1179.1" cy="328.26" r="50.114" fill="#0d1330" stroke="#fff" stroke-linecap="round" stroke-linejoin="round" stroke-width="5.625"/>
   <circle transform="scale(1,-1)" cx="-1165.9" cy="314.09" r="16.192" fill="#ffde59"/>
   <g transform="rotate(-45.307 -1312.9 -189.9)">
    <circle transform="scale(1,-1)" cx="-1119.8" cy="202.64" r="5.7346" fill="#ff99cf"/>
    <path transform="matrix(.86325 0 0 .8556 -157.98 -28.978)" d="m-1114.2-202.97v-39.214l-5.8719 39.214m5.8719 0v-39.214l5.8719 39.214" fill="url(#linearGradient36585)"/>
   </g>
  </g>
  <path d="m148.09 15.973v158.41" fill="none" stroke="#242d5c" stroke-width="4.4787"/>
  <g transform="matrix(.54069 0 0 -.54069 644.47 -155.7)">
   <path d="m-935.54-618.1h-79.717v-56.423h135.53v56.423z" fill="#f187bf"/>
   <g transform="translate(-167.17 -95.458)" clip-path="url(#clipPath14958)">
    <rect transform="scale(1,-1)" x="-833.08" y="399.03" width="21.964" height="24.722" fill="#ccc"/>
    <rect transform="scale(1,-1)" x="-833.08" y="423.76" width="21.964" height="24.722" fill="#ff3232"/>
    <rect transform="scale(1,-1)" x="-833.08" y="473.2" width="21.964" height="24.722" fill="#ff3232"/>
    <rect transform="scale(1,-1)" x="-833.08" y="448.48" width="21.964" height="24.722" fill="#ccc"/>
    <rect transform="scale(1,-1)" x="-833.08" y="497.92" width="21.964" height="24.722" fill="#ccc"/>
   </g>
   <g transform="translate(-128.71 -95.458)" clip-path="url(#clipPath14958-0)">
    <rect transform="scale(1,-1)" x="-833.08" y="399.03" width="21.964" height="24.722" fill="#ccc"/>
    <rect transform="scale(1,-1)" x="-833.08" y="423.76" width="21.964" height="24.722" fill="#ff3232"/>
    <rect transform="scale(1,-1)" x="-833.08" y="473.2" width="21.964" height="24.722" fill="#ff3232"/>
    <rect transform="scale(1,-1)" x="-833.08" y="448.48" width="21.964" height="24.722" fill="#ccc"/>
    <rect transform="scale(1,-1)" x="-833.08" y="497.92" width="21.964" height="24.722" fill="#ccc"/>
   </g>
   <rect transform="scale(1,-1)" x="-1022.9" y="607.28" width="152.45" height="10.825" fill="#435bd1"/>
   <rect transform="scale(1,-1)" x="-879.72" y="664.36" width="87.119" height="10.164" fill="#435bd1"/>
   <path d="m-1015.3-618.1v-56.423h135.53c-96.088 5.2055-113.9-1.4086-135.53 56.423z" fill="#c26d9a"/>
   <path transform="matrix(.66283 0 0 -.66283 295.51 431.17)" d="m-1743.3 1652.5-11.354 6.9616-10.129-8.6466 5.0933-12.306 13.277 1.0414z" fill="#4d4d4d"/>
   <path transform="matrix(.57863 .3233 .3233 -.57863 -403.64 830.69)" d="m-1671.7 1641.4-14.324 9.0451-14.995-7.8821-0.6715-16.927 14.324-9.0452 14.995 7.8822z" fill="#333"/>
   <path transform="matrix(.64161 .35849 .35849 -.64161 -324.35 994.61)" d="m-1671.7 1641.4-14.324 9.0451-14.995-7.8821-0.6715-16.927 14.324-9.0452 14.995 7.8822z" fill="#333"/>
   <path transform="matrix(.12276 .25179 .25179 -.12276 -1079.4 -40.722)" d="m-1621.4 1675-30.374-17.965 30.745-17.322z" fill="#666"/>
   <path transform="matrix(.85343 0 0 -.85343 689.51 743.89)" d="m-1743.3 1652.5-11.354 6.9616-10.129-8.6466 5.0933-12.306 13.277 1.0414z" fill="#4d4d4d"/>
  </g>
  <g transform="matrix(.35278 0 0 -.35278 474.02 -5.3065)">
   <circle transform="scale(1,-1)" cx="-926" cy="-15.88" r="138.01" fill="url(#radialGradient31016)" opacity=".62594"/>
   <g transform="translate(-364.47 25.76)">
    <rect transform="scale(1,-1)" x="-600.87" y="138.15" width="82.893" height="33.86" rx=".65339" ry=".48885" fill="#242d5c" fill-rule="evenodd" stroke-width=".29672"/>
    <path d="m-559.42 69.003c-42.691 2.48e-4 -77.299-34.608-77.298-77.298 0.88447-41.811 35.852-47.708 35.852-129.85h82.893c0 82.146 34.967 88.043 35.852 129.85 2.2e-4 42.691-34.608 77.299-77.298 77.298z" fill="#ffde59" stroke-linecap="round" stroke-width="2.835"/>
   </g>
  </g>
 </g>
</svg>
